<mxfile host="app.diagrams.net" modified="2024-06-07T04:51:12.322Z" agent="Mozilla/5.0 (Windows NT 10.0; Win64; x64) AppleWebKit/537.36 (KHTML, like Gecko) Chrome/125.0.0.0 Safari/537.36" etag="ny96__XsiWl_O9opwtCX" version="24.5.1" type="github">
  <diagram name="Page-1" id="m3vZYG0YwCSzo-38tZGK">
    <mxGraphModel dx="1070" dy="1221" grid="0" gridSize="10" guides="1" tooltips="1" connect="1" arrows="1" fold="1" page="0" pageScale="1" pageWidth="850" pageHeight="1100" math="0" shadow="0">
      <root>
        <mxCell id="0" />
        <mxCell id="1" parent="0" />
        <mxCell id="jOBW6AXI4wweXSDxxBhk-1" value="Fact Table" style="shape=table;startSize=30;container=1;collapsible=1;childLayout=tableLayout;fixedRows=1;rowLines=0;fontStyle=1;align=center;resizeLast=1;html=1;" vertex="1" parent="1">
          <mxGeometry x="122" y="-131" width="179" height="183" as="geometry" />
        </mxCell>
        <mxCell id="jOBW6AXI4wweXSDxxBhk-2" value="" style="shape=tableRow;horizontal=0;startSize=0;swimlaneHead=0;swimlaneBody=0;fillColor=none;collapsible=0;dropTarget=0;points=[[0,0.5],[1,0.5]];portConstraint=eastwest;top=0;left=0;right=0;bottom=1;" vertex="1" parent="jOBW6AXI4wweXSDxxBhk-1">
          <mxGeometry y="30" width="179" height="33" as="geometry" />
        </mxCell>
        <mxCell id="jOBW6AXI4wweXSDxxBhk-3" value="PK" style="shape=partialRectangle;connectable=0;fillColor=none;top=0;left=0;bottom=0;right=0;fontStyle=1;overflow=hidden;whiteSpace=wrap;html=1;" vertex="1" parent="jOBW6AXI4wweXSDxxBhk-2">
          <mxGeometry width="30" height="33" as="geometry">
            <mxRectangle width="30" height="33" as="alternateBounds" />
          </mxGeometry>
        </mxCell>
        <mxCell id="jOBW6AXI4wweXSDxxBhk-4" value="vendor_id" style="shape=partialRectangle;connectable=0;fillColor=none;top=0;left=0;bottom=0;right=0;align=left;spacingLeft=6;fontStyle=5;overflow=hidden;whiteSpace=wrap;html=1;" vertex="1" parent="jOBW6AXI4wweXSDxxBhk-2">
          <mxGeometry x="30" width="149" height="33" as="geometry">
            <mxRectangle width="149" height="33" as="alternateBounds" />
          </mxGeometry>
        </mxCell>
        <mxCell id="jOBW6AXI4wweXSDxxBhk-72" value="" style="shape=tableRow;horizontal=0;startSize=0;swimlaneHead=0;swimlaneBody=0;fillColor=none;collapsible=0;dropTarget=0;points=[[0,0.5],[1,0.5]];portConstraint=eastwest;top=0;left=0;right=0;bottom=1;" vertex="1" parent="jOBW6AXI4wweXSDxxBhk-1">
          <mxGeometry y="63" width="179" height="30" as="geometry" />
        </mxCell>
        <mxCell id="jOBW6AXI4wweXSDxxBhk-73" value="&lt;span style=&quot;font-weight: 400;&quot;&gt;FK&lt;/span&gt;" style="shape=partialRectangle;connectable=0;fillColor=none;top=0;left=0;bottom=0;right=0;fontStyle=1;overflow=hidden;whiteSpace=wrap;html=1;" vertex="1" parent="jOBW6AXI4wweXSDxxBhk-72">
          <mxGeometry width="30" height="30" as="geometry">
            <mxRectangle width="30" height="30" as="alternateBounds" />
          </mxGeometry>
        </mxCell>
        <mxCell id="jOBW6AXI4wweXSDxxBhk-74" value="&lt;span style=&quot;font-weight: 400;&quot;&gt;datetime_id&lt;/span&gt;" style="shape=partialRectangle;connectable=0;fillColor=none;top=0;left=0;bottom=0;right=0;align=left;spacingLeft=6;fontStyle=5;overflow=hidden;whiteSpace=wrap;html=1;" vertex="1" parent="jOBW6AXI4wweXSDxxBhk-72">
          <mxGeometry x="30" width="149" height="30" as="geometry">
            <mxRectangle width="149" height="30" as="alternateBounds" />
          </mxGeometry>
        </mxCell>
        <mxCell id="jOBW6AXI4wweXSDxxBhk-88" value="" style="shape=tableRow;horizontal=0;startSize=0;swimlaneHead=0;swimlaneBody=0;fillColor=none;collapsible=0;dropTarget=0;points=[[0,0.5],[1,0.5]];portConstraint=eastwest;top=0;left=0;right=0;bottom=1;" vertex="1" parent="jOBW6AXI4wweXSDxxBhk-1">
          <mxGeometry y="93" width="179" height="30" as="geometry" />
        </mxCell>
        <mxCell id="jOBW6AXI4wweXSDxxBhk-89" value="FK" style="shape=partialRectangle;connectable=0;fillColor=none;top=0;left=0;bottom=0;right=0;fontStyle=1;overflow=hidden;whiteSpace=wrap;html=1;" vertex="1" parent="jOBW6AXI4wweXSDxxBhk-88">
          <mxGeometry width="30" height="30" as="geometry">
            <mxRectangle width="30" height="30" as="alternateBounds" />
          </mxGeometry>
        </mxCell>
        <mxCell id="jOBW6AXI4wweXSDxxBhk-90" value="passenger_count_id" style="shape=partialRectangle;connectable=0;fillColor=none;top=0;left=0;bottom=0;right=0;align=left;spacingLeft=6;fontStyle=5;overflow=hidden;whiteSpace=wrap;html=1;" vertex="1" parent="jOBW6AXI4wweXSDxxBhk-88">
          <mxGeometry x="30" width="149" height="30" as="geometry">
            <mxRectangle width="149" height="30" as="alternateBounds" />
          </mxGeometry>
        </mxCell>
        <mxCell id="jOBW6AXI4wweXSDxxBhk-108" value="" style="shape=tableRow;horizontal=0;startSize=0;swimlaneHead=0;swimlaneBody=0;fillColor=none;collapsible=0;dropTarget=0;points=[[0,0.5],[1,0.5]];portConstraint=eastwest;top=0;left=0;right=0;bottom=1;" vertex="1" parent="jOBW6AXI4wweXSDxxBhk-1">
          <mxGeometry y="123" width="179" height="30" as="geometry" />
        </mxCell>
        <mxCell id="jOBW6AXI4wweXSDxxBhk-109" value="FK" style="shape=partialRectangle;connectable=0;fillColor=none;top=0;left=0;bottom=0;right=0;fontStyle=1;overflow=hidden;whiteSpace=wrap;html=1;" vertex="1" parent="jOBW6AXI4wweXSDxxBhk-108">
          <mxGeometry width="30" height="30" as="geometry">
            <mxRectangle width="30" height="30" as="alternateBounds" />
          </mxGeometry>
        </mxCell>
        <mxCell id="jOBW6AXI4wweXSDxxBhk-110" value="trip_distance_id" style="shape=partialRectangle;connectable=0;fillColor=none;top=0;left=0;bottom=0;right=0;align=left;spacingLeft=6;fontStyle=5;overflow=hidden;whiteSpace=wrap;html=1;" vertex="1" parent="jOBW6AXI4wweXSDxxBhk-108">
          <mxGeometry x="30" width="149" height="30" as="geometry">
            <mxRectangle width="149" height="30" as="alternateBounds" />
          </mxGeometry>
        </mxCell>
        <mxCell id="jOBW6AXI4wweXSDxxBhk-11" value="" style="shape=tableRow;horizontal=0;startSize=0;swimlaneHead=0;swimlaneBody=0;fillColor=none;collapsible=0;dropTarget=0;points=[[0,0.5],[1,0.5]];portConstraint=eastwest;top=0;left=0;right=0;bottom=0;" vertex="1" parent="jOBW6AXI4wweXSDxxBhk-1">
          <mxGeometry y="153" width="179" height="30" as="geometry" />
        </mxCell>
        <mxCell id="jOBW6AXI4wweXSDxxBhk-12" value="" style="shape=partialRectangle;connectable=0;fillColor=none;top=0;left=0;bottom=0;right=0;editable=1;overflow=hidden;whiteSpace=wrap;html=1;" vertex="1" parent="jOBW6AXI4wweXSDxxBhk-11">
          <mxGeometry width="30" height="30" as="geometry">
            <mxRectangle width="30" height="30" as="alternateBounds" />
          </mxGeometry>
        </mxCell>
        <mxCell id="jOBW6AXI4wweXSDxxBhk-13" value="Row 3" style="shape=partialRectangle;connectable=0;fillColor=none;top=0;left=0;bottom=0;right=0;align=left;spacingLeft=6;overflow=hidden;whiteSpace=wrap;html=1;" vertex="1" parent="jOBW6AXI4wweXSDxxBhk-11">
          <mxGeometry x="30" width="149" height="30" as="geometry">
            <mxRectangle width="149" height="30" as="alternateBounds" />
          </mxGeometry>
        </mxCell>
        <mxCell id="jOBW6AXI4wweXSDxxBhk-27" value="" style="shape=tableRow;horizontal=0;startSize=0;swimlaneHead=0;swimlaneBody=0;fillColor=none;collapsible=0;dropTarget=0;points=[[0,0.5],[1,0.5]];portConstraint=eastwest;top=0;left=0;right=0;bottom=0;" vertex="1" parent="1">
          <mxGeometry x="105" y="-46" width="211" height="30" as="geometry" />
        </mxCell>
        <mxCell id="jOBW6AXI4wweXSDxxBhk-28" value="" style="shape=partialRectangle;connectable=0;fillColor=none;top=0;left=0;bottom=0;right=0;editable=1;overflow=hidden;whiteSpace=wrap;html=1;" vertex="1" parent="jOBW6AXI4wweXSDxxBhk-27">
          <mxGeometry width="30" height="30" as="geometry">
            <mxRectangle width="30" height="30" as="alternateBounds" />
          </mxGeometry>
        </mxCell>
        <mxCell id="jOBW6AXI4wweXSDxxBhk-14" value="datetime_dim" style="shape=table;startSize=36;container=1;collapsible=1;childLayout=tableLayout;fixedRows=1;rowLines=0;fontStyle=1;align=center;resizeLast=1;html=1;" vertex="1" parent="1">
          <mxGeometry x="386" y="-197" width="211" height="435" as="geometry">
            <mxRectangle x="-65" y="-163" width="107" height="36" as="alternateBounds" />
          </mxGeometry>
        </mxCell>
        <mxCell id="jOBW6AXI4wweXSDxxBhk-15" value="" style="shape=tableRow;horizontal=0;startSize=0;swimlaneHead=0;swimlaneBody=0;fillColor=none;collapsible=0;dropTarget=0;points=[[0,0.5],[1,0.5]];portConstraint=eastwest;top=0;left=0;right=0;bottom=1;" vertex="1" parent="jOBW6AXI4wweXSDxxBhk-14">
          <mxGeometry y="36" width="211" height="29" as="geometry" />
        </mxCell>
        <mxCell id="jOBW6AXI4wweXSDxxBhk-16" value="PK" style="shape=partialRectangle;connectable=0;fillColor=none;top=0;left=0;bottom=0;right=0;fontStyle=1;overflow=hidden;whiteSpace=wrap;html=1;" vertex="1" parent="jOBW6AXI4wweXSDxxBhk-15">
          <mxGeometry width="41.75" height="29" as="geometry">
            <mxRectangle width="41.75" height="29" as="alternateBounds" />
          </mxGeometry>
        </mxCell>
        <mxCell id="jOBW6AXI4wweXSDxxBhk-17" value="datetime_id" style="shape=partialRectangle;connectable=0;fillColor=none;top=0;left=0;bottom=0;right=0;align=left;spacingLeft=6;fontStyle=5;overflow=hidden;whiteSpace=wrap;html=1;" vertex="1" parent="jOBW6AXI4wweXSDxxBhk-15">
          <mxGeometry x="41.75" width="169.25" height="29" as="geometry">
            <mxRectangle width="169.25" height="29" as="alternateBounds" />
          </mxGeometry>
        </mxCell>
        <mxCell id="jOBW6AXI4wweXSDxxBhk-18" value="" style="shape=tableRow;horizontal=0;startSize=0;swimlaneHead=0;swimlaneBody=0;fillColor=none;collapsible=0;dropTarget=0;points=[[0,0.5],[1,0.5]];portConstraint=eastwest;top=0;left=0;right=0;bottom=0;" vertex="1" parent="jOBW6AXI4wweXSDxxBhk-14">
          <mxGeometry y="65" width="211" height="38" as="geometry" />
        </mxCell>
        <mxCell id="jOBW6AXI4wweXSDxxBhk-19" value="" style="shape=partialRectangle;connectable=0;fillColor=none;top=0;left=0;bottom=0;right=0;editable=1;overflow=hidden;whiteSpace=wrap;html=1;" vertex="1" parent="jOBW6AXI4wweXSDxxBhk-18">
          <mxGeometry width="41.75" height="38" as="geometry">
            <mxRectangle width="41.75" height="38" as="alternateBounds" />
          </mxGeometry>
        </mxCell>
        <mxCell id="jOBW6AXI4wweXSDxxBhk-20" value="&lt;span style=&quot;color: rgba(0, 0, 0, 0.87); font-family: system-ui, -apple-system, blinkmacsystemfont, &amp;quot;Segoe UI&amp;quot;, helvetica, arial, sans-serif, &amp;quot;Apple Color Emoji&amp;quot;, &amp;quot;Segoe UI Emoji&amp;quot;, &amp;quot;Segoe UI Symbol&amp;quot;; font-size: 13px; font-weight: 700; text-align: right;&quot;&gt;tpep_pickup_datetime&lt;/span&gt;" style="shape=partialRectangle;connectable=0;fillColor=none;top=0;left=0;bottom=0;right=0;align=left;spacingLeft=6;overflow=hidden;whiteSpace=wrap;html=1;" vertex="1" parent="jOBW6AXI4wweXSDxxBhk-18">
          <mxGeometry x="41.75" width="169.25" height="38" as="geometry">
            <mxRectangle width="169.25" height="38" as="alternateBounds" />
          </mxGeometry>
        </mxCell>
        <mxCell id="jOBW6AXI4wweXSDxxBhk-24" value="" style="shape=tableRow;horizontal=0;startSize=0;swimlaneHead=0;swimlaneBody=0;fillColor=none;collapsible=0;dropTarget=0;points=[[0,0.5],[1,0.5]];portConstraint=eastwest;top=0;left=0;right=0;bottom=0;" vertex="1" parent="jOBW6AXI4wweXSDxxBhk-14">
          <mxGeometry y="103" width="211" height="26" as="geometry" />
        </mxCell>
        <mxCell id="jOBW6AXI4wweXSDxxBhk-25" value="" style="shape=partialRectangle;connectable=0;fillColor=none;top=0;left=0;bottom=0;right=0;editable=1;overflow=hidden;whiteSpace=wrap;html=1;" vertex="1" parent="jOBW6AXI4wweXSDxxBhk-24">
          <mxGeometry width="41.75" height="26" as="geometry">
            <mxRectangle width="41.75" height="26" as="alternateBounds" />
          </mxGeometry>
        </mxCell>
        <mxCell id="jOBW6AXI4wweXSDxxBhk-26" value="pickup_hour" style="shape=partialRectangle;connectable=0;fillColor=none;top=0;left=0;bottom=0;right=0;align=left;spacingLeft=6;overflow=hidden;whiteSpace=wrap;html=1;" vertex="1" parent="jOBW6AXI4wweXSDxxBhk-24">
          <mxGeometry x="41.75" width="169.25" height="26" as="geometry">
            <mxRectangle width="169.25" height="26" as="alternateBounds" />
          </mxGeometry>
        </mxCell>
        <mxCell id="jOBW6AXI4wweXSDxxBhk-39" value="" style="shape=tableRow;horizontal=0;startSize=0;swimlaneHead=0;swimlaneBody=0;fillColor=none;collapsible=0;dropTarget=0;points=[[0,0.5],[1,0.5]];portConstraint=eastwest;top=0;left=0;right=0;bottom=0;" vertex="1" parent="jOBW6AXI4wweXSDxxBhk-14">
          <mxGeometry y="129" width="211" height="30" as="geometry" />
        </mxCell>
        <mxCell id="jOBW6AXI4wweXSDxxBhk-40" value="" style="shape=partialRectangle;connectable=0;fillColor=none;top=0;left=0;bottom=0;right=0;editable=1;overflow=hidden;" vertex="1" parent="jOBW6AXI4wweXSDxxBhk-39">
          <mxGeometry width="41.75" height="30" as="geometry">
            <mxRectangle width="41.75" height="30" as="alternateBounds" />
          </mxGeometry>
        </mxCell>
        <mxCell id="jOBW6AXI4wweXSDxxBhk-41" value="pick_day" style="shape=partialRectangle;connectable=0;fillColor=none;top=0;left=0;bottom=0;right=0;align=left;spacingLeft=6;overflow=hidden;" vertex="1" parent="jOBW6AXI4wweXSDxxBhk-39">
          <mxGeometry x="41.75" width="169.25" height="30" as="geometry">
            <mxRectangle width="169.25" height="30" as="alternateBounds" />
          </mxGeometry>
        </mxCell>
        <mxCell id="jOBW6AXI4wweXSDxxBhk-42" value="" style="shape=tableRow;horizontal=0;startSize=0;swimlaneHead=0;swimlaneBody=0;fillColor=none;collapsible=0;dropTarget=0;points=[[0,0.5],[1,0.5]];portConstraint=eastwest;top=0;left=0;right=0;bottom=0;" vertex="1" parent="jOBW6AXI4wweXSDxxBhk-14">
          <mxGeometry y="159" width="211" height="30" as="geometry" />
        </mxCell>
        <mxCell id="jOBW6AXI4wweXSDxxBhk-43" value="" style="shape=partialRectangle;connectable=0;fillColor=none;top=0;left=0;bottom=0;right=0;editable=1;overflow=hidden;" vertex="1" parent="jOBW6AXI4wweXSDxxBhk-42">
          <mxGeometry width="41.75" height="30" as="geometry">
            <mxRectangle width="41.75" height="30" as="alternateBounds" />
          </mxGeometry>
        </mxCell>
        <mxCell id="jOBW6AXI4wweXSDxxBhk-44" value="pick_month" style="shape=partialRectangle;connectable=0;fillColor=none;top=0;left=0;bottom=0;right=0;align=left;spacingLeft=6;overflow=hidden;" vertex="1" parent="jOBW6AXI4wweXSDxxBhk-42">
          <mxGeometry x="41.75" width="169.25" height="30" as="geometry">
            <mxRectangle width="169.25" height="30" as="alternateBounds" />
          </mxGeometry>
        </mxCell>
        <mxCell id="jOBW6AXI4wweXSDxxBhk-45" value="" style="shape=tableRow;horizontal=0;startSize=0;swimlaneHead=0;swimlaneBody=0;fillColor=none;collapsible=0;dropTarget=0;points=[[0,0.5],[1,0.5]];portConstraint=eastwest;top=0;left=0;right=0;bottom=0;" vertex="1" parent="jOBW6AXI4wweXSDxxBhk-14">
          <mxGeometry y="189" width="211" height="30" as="geometry" />
        </mxCell>
        <mxCell id="jOBW6AXI4wweXSDxxBhk-46" value="" style="shape=partialRectangle;connectable=0;fillColor=none;top=0;left=0;bottom=0;right=0;editable=1;overflow=hidden;" vertex="1" parent="jOBW6AXI4wweXSDxxBhk-45">
          <mxGeometry width="41.75" height="30" as="geometry">
            <mxRectangle width="41.75" height="30" as="alternateBounds" />
          </mxGeometry>
        </mxCell>
        <mxCell id="jOBW6AXI4wweXSDxxBhk-47" value="pick_year" style="shape=partialRectangle;connectable=0;fillColor=none;top=0;left=0;bottom=0;right=0;align=left;spacingLeft=6;overflow=hidden;" vertex="1" parent="jOBW6AXI4wweXSDxxBhk-45">
          <mxGeometry x="41.75" width="169.25" height="30" as="geometry">
            <mxRectangle width="169.25" height="30" as="alternateBounds" />
          </mxGeometry>
        </mxCell>
        <mxCell id="jOBW6AXI4wweXSDxxBhk-48" value="" style="shape=tableRow;horizontal=0;startSize=0;swimlaneHead=0;swimlaneBody=0;fillColor=none;collapsible=0;dropTarget=0;points=[[0,0.5],[1,0.5]];portConstraint=eastwest;top=0;left=0;right=0;bottom=0;" vertex="1" parent="jOBW6AXI4wweXSDxxBhk-14">
          <mxGeometry y="219" width="211" height="30" as="geometry" />
        </mxCell>
        <mxCell id="jOBW6AXI4wweXSDxxBhk-49" value="" style="shape=partialRectangle;connectable=0;fillColor=none;top=0;left=0;bottom=0;right=0;editable=1;overflow=hidden;" vertex="1" parent="jOBW6AXI4wweXSDxxBhk-48">
          <mxGeometry width="41.75" height="30" as="geometry">
            <mxRectangle width="41.75" height="30" as="alternateBounds" />
          </mxGeometry>
        </mxCell>
        <mxCell id="jOBW6AXI4wweXSDxxBhk-50" value="pick_weekday" style="shape=partialRectangle;connectable=0;fillColor=none;top=0;left=0;bottom=0;right=0;align=left;spacingLeft=6;overflow=hidden;" vertex="1" parent="jOBW6AXI4wweXSDxxBhk-48">
          <mxGeometry x="41.75" width="169.25" height="30" as="geometry">
            <mxRectangle width="169.25" height="30" as="alternateBounds" />
          </mxGeometry>
        </mxCell>
        <mxCell id="jOBW6AXI4wweXSDxxBhk-21" value="" style="shape=tableRow;horizontal=0;startSize=0;swimlaneHead=0;swimlaneBody=0;fillColor=none;collapsible=0;dropTarget=0;points=[[0,0.5],[1,0.5]];portConstraint=eastwest;top=0;left=0;right=0;bottom=0;" vertex="1" parent="jOBW6AXI4wweXSDxxBhk-14">
          <mxGeometry y="249" width="211" height="35" as="geometry" />
        </mxCell>
        <mxCell id="jOBW6AXI4wweXSDxxBhk-22" value="" style="shape=partialRectangle;connectable=0;fillColor=none;top=0;left=0;bottom=0;right=0;editable=1;overflow=hidden;whiteSpace=wrap;html=1;" vertex="1" parent="jOBW6AXI4wweXSDxxBhk-21">
          <mxGeometry width="41.75" height="35" as="geometry">
            <mxRectangle width="41.75" height="35" as="alternateBounds" />
          </mxGeometry>
        </mxCell>
        <mxCell id="jOBW6AXI4wweXSDxxBhk-23" value="&lt;span style=&quot;color: rgba(0, 0, 0, 0.87); font-family: system-ui, -apple-system, blinkmacsystemfont, &amp;quot;Segoe UI&amp;quot;, helvetica, arial, sans-serif, &amp;quot;Apple Color Emoji&amp;quot;, &amp;quot;Segoe UI Emoji&amp;quot;, &amp;quot;Segoe UI Symbol&amp;quot;; font-size: 13px; font-weight: 700; text-align: right;&quot;&gt;tpep_dropoff_datetime&lt;/span&gt;" style="shape=partialRectangle;connectable=0;fillColor=none;top=0;left=0;bottom=0;right=0;align=left;spacingLeft=6;overflow=hidden;whiteSpace=wrap;html=1;" vertex="1" parent="jOBW6AXI4wweXSDxxBhk-21">
          <mxGeometry x="41.75" width="169.25" height="35" as="geometry">
            <mxRectangle width="169.25" height="35" as="alternateBounds" />
          </mxGeometry>
        </mxCell>
        <mxCell id="jOBW6AXI4wweXSDxxBhk-51" value="" style="shape=tableRow;horizontal=0;startSize=0;swimlaneHead=0;swimlaneBody=0;fillColor=none;collapsible=0;dropTarget=0;points=[[0,0.5],[1,0.5]];portConstraint=eastwest;top=0;left=0;right=0;bottom=0;" vertex="1" parent="jOBW6AXI4wweXSDxxBhk-14">
          <mxGeometry y="284" width="211" height="30" as="geometry" />
        </mxCell>
        <mxCell id="jOBW6AXI4wweXSDxxBhk-52" value="" style="shape=partialRectangle;connectable=0;fillColor=none;top=0;left=0;bottom=0;right=0;editable=1;overflow=hidden;" vertex="1" parent="jOBW6AXI4wweXSDxxBhk-51">
          <mxGeometry width="41.75" height="30" as="geometry">
            <mxRectangle width="41.75" height="30" as="alternateBounds" />
          </mxGeometry>
        </mxCell>
        <mxCell id="jOBW6AXI4wweXSDxxBhk-53" value="drop_hour" style="shape=partialRectangle;connectable=0;fillColor=none;top=0;left=0;bottom=0;right=0;align=left;spacingLeft=6;overflow=hidden;" vertex="1" parent="jOBW6AXI4wweXSDxxBhk-51">
          <mxGeometry x="41.75" width="169.25" height="30" as="geometry">
            <mxRectangle width="169.25" height="30" as="alternateBounds" />
          </mxGeometry>
        </mxCell>
        <mxCell id="jOBW6AXI4wweXSDxxBhk-57" value="" style="shape=tableRow;horizontal=0;startSize=0;swimlaneHead=0;swimlaneBody=0;fillColor=none;collapsible=0;dropTarget=0;points=[[0,0.5],[1,0.5]];portConstraint=eastwest;top=0;left=0;right=0;bottom=0;" vertex="1" parent="jOBW6AXI4wweXSDxxBhk-14">
          <mxGeometry y="314" width="211" height="30" as="geometry" />
        </mxCell>
        <mxCell id="jOBW6AXI4wweXSDxxBhk-58" value="" style="shape=partialRectangle;connectable=0;fillColor=none;top=0;left=0;bottom=0;right=0;editable=1;overflow=hidden;" vertex="1" parent="jOBW6AXI4wweXSDxxBhk-57">
          <mxGeometry width="41.75" height="30" as="geometry">
            <mxRectangle width="41.75" height="30" as="alternateBounds" />
          </mxGeometry>
        </mxCell>
        <mxCell id="jOBW6AXI4wweXSDxxBhk-59" value="drop_day" style="shape=partialRectangle;connectable=0;fillColor=none;top=0;left=0;bottom=0;right=0;align=left;spacingLeft=6;overflow=hidden;" vertex="1" parent="jOBW6AXI4wweXSDxxBhk-57">
          <mxGeometry x="41.75" width="169.25" height="30" as="geometry">
            <mxRectangle width="169.25" height="30" as="alternateBounds" />
          </mxGeometry>
        </mxCell>
        <mxCell id="jOBW6AXI4wweXSDxxBhk-60" value="" style="shape=tableRow;horizontal=0;startSize=0;swimlaneHead=0;swimlaneBody=0;fillColor=none;collapsible=0;dropTarget=0;points=[[0,0.5],[1,0.5]];portConstraint=eastwest;top=0;left=0;right=0;bottom=0;" vertex="1" parent="jOBW6AXI4wweXSDxxBhk-14">
          <mxGeometry y="344" width="211" height="30" as="geometry" />
        </mxCell>
        <mxCell id="jOBW6AXI4wweXSDxxBhk-61" value="" style="shape=partialRectangle;connectable=0;fillColor=none;top=0;left=0;bottom=0;right=0;editable=1;overflow=hidden;" vertex="1" parent="jOBW6AXI4wweXSDxxBhk-60">
          <mxGeometry width="41.75" height="30" as="geometry">
            <mxRectangle width="41.75" height="30" as="alternateBounds" />
          </mxGeometry>
        </mxCell>
        <mxCell id="jOBW6AXI4wweXSDxxBhk-62" value="drop_month" style="shape=partialRectangle;connectable=0;fillColor=none;top=0;left=0;bottom=0;right=0;align=left;spacingLeft=6;overflow=hidden;" vertex="1" parent="jOBW6AXI4wweXSDxxBhk-60">
          <mxGeometry x="41.75" width="169.25" height="30" as="geometry">
            <mxRectangle width="169.25" height="30" as="alternateBounds" />
          </mxGeometry>
        </mxCell>
        <mxCell id="jOBW6AXI4wweXSDxxBhk-63" value="" style="shape=tableRow;horizontal=0;startSize=0;swimlaneHead=0;swimlaneBody=0;fillColor=none;collapsible=0;dropTarget=0;points=[[0,0.5],[1,0.5]];portConstraint=eastwest;top=0;left=0;right=0;bottom=0;" vertex="1" parent="jOBW6AXI4wweXSDxxBhk-14">
          <mxGeometry y="374" width="211" height="30" as="geometry" />
        </mxCell>
        <mxCell id="jOBW6AXI4wweXSDxxBhk-64" value="" style="shape=partialRectangle;connectable=0;fillColor=none;top=0;left=0;bottom=0;right=0;editable=1;overflow=hidden;" vertex="1" parent="jOBW6AXI4wweXSDxxBhk-63">
          <mxGeometry width="41.75" height="30" as="geometry">
            <mxRectangle width="41.75" height="30" as="alternateBounds" />
          </mxGeometry>
        </mxCell>
        <mxCell id="jOBW6AXI4wweXSDxxBhk-65" value="drop_year" style="shape=partialRectangle;connectable=0;fillColor=none;top=0;left=0;bottom=0;right=0;align=left;spacingLeft=6;overflow=hidden;" vertex="1" parent="jOBW6AXI4wweXSDxxBhk-63">
          <mxGeometry x="41.75" width="169.25" height="30" as="geometry">
            <mxRectangle width="169.25" height="30" as="alternateBounds" />
          </mxGeometry>
        </mxCell>
        <mxCell id="jOBW6AXI4wweXSDxxBhk-54" value="" style="shape=tableRow;horizontal=0;startSize=0;swimlaneHead=0;swimlaneBody=0;fillColor=none;collapsible=0;dropTarget=0;points=[[0,0.5],[1,0.5]];portConstraint=eastwest;top=0;left=0;right=0;bottom=0;" vertex="1" parent="jOBW6AXI4wweXSDxxBhk-14">
          <mxGeometry y="404" width="211" height="30" as="geometry" />
        </mxCell>
        <mxCell id="jOBW6AXI4wweXSDxxBhk-55" value="" style="shape=partialRectangle;connectable=0;fillColor=none;top=0;left=0;bottom=0;right=0;editable=1;overflow=hidden;" vertex="1" parent="jOBW6AXI4wweXSDxxBhk-54">
          <mxGeometry width="41.75" height="30" as="geometry">
            <mxRectangle width="41.75" height="30" as="alternateBounds" />
          </mxGeometry>
        </mxCell>
        <mxCell id="jOBW6AXI4wweXSDxxBhk-56" value="drop_weekday" style="shape=partialRectangle;connectable=0;fillColor=none;top=0;left=0;bottom=0;right=0;align=left;spacingLeft=6;overflow=hidden;" vertex="1" parent="jOBW6AXI4wweXSDxxBhk-54">
          <mxGeometry x="41.75" width="169.25" height="30" as="geometry">
            <mxRectangle width="169.25" height="30" as="alternateBounds" />
          </mxGeometry>
        </mxCell>
        <mxCell id="jOBW6AXI4wweXSDxxBhk-75" value="passenger_count_dim" style="shape=table;startSize=30;container=1;collapsible=1;childLayout=tableLayout;fixedRows=1;rowLines=0;fontStyle=1;align=center;resizeLast=1;html=1;" vertex="1" parent="1">
          <mxGeometry x="-129" y="-168" width="180" height="90" as="geometry" />
        </mxCell>
        <mxCell id="jOBW6AXI4wweXSDxxBhk-76" value="" style="shape=tableRow;horizontal=0;startSize=0;swimlaneHead=0;swimlaneBody=0;fillColor=none;collapsible=0;dropTarget=0;points=[[0,0.5],[1,0.5]];portConstraint=eastwest;top=0;left=0;right=0;bottom=1;" vertex="1" parent="jOBW6AXI4wweXSDxxBhk-75">
          <mxGeometry y="30" width="180" height="30" as="geometry" />
        </mxCell>
        <mxCell id="jOBW6AXI4wweXSDxxBhk-77" value="PK" style="shape=partialRectangle;connectable=0;fillColor=none;top=0;left=0;bottom=0;right=0;fontStyle=1;overflow=hidden;whiteSpace=wrap;html=1;" vertex="1" parent="jOBW6AXI4wweXSDxxBhk-76">
          <mxGeometry width="30" height="30" as="geometry">
            <mxRectangle width="30" height="30" as="alternateBounds" />
          </mxGeometry>
        </mxCell>
        <mxCell id="jOBW6AXI4wweXSDxxBhk-78" value="passenger_count_id" style="shape=partialRectangle;connectable=0;fillColor=none;top=0;left=0;bottom=0;right=0;align=left;spacingLeft=6;fontStyle=5;overflow=hidden;whiteSpace=wrap;html=1;" vertex="1" parent="jOBW6AXI4wweXSDxxBhk-76">
          <mxGeometry x="30" width="150" height="30" as="geometry">
            <mxRectangle width="150" height="30" as="alternateBounds" />
          </mxGeometry>
        </mxCell>
        <mxCell id="jOBW6AXI4wweXSDxxBhk-79" value="" style="shape=tableRow;horizontal=0;startSize=0;swimlaneHead=0;swimlaneBody=0;fillColor=none;collapsible=0;dropTarget=0;points=[[0,0.5],[1,0.5]];portConstraint=eastwest;top=0;left=0;right=0;bottom=0;" vertex="1" parent="jOBW6AXI4wweXSDxxBhk-75">
          <mxGeometry y="60" width="180" height="30" as="geometry" />
        </mxCell>
        <mxCell id="jOBW6AXI4wweXSDxxBhk-80" value="" style="shape=partialRectangle;connectable=0;fillColor=none;top=0;left=0;bottom=0;right=0;editable=1;overflow=hidden;whiteSpace=wrap;html=1;" vertex="1" parent="jOBW6AXI4wweXSDxxBhk-79">
          <mxGeometry width="30" height="30" as="geometry">
            <mxRectangle width="30" height="30" as="alternateBounds" />
          </mxGeometry>
        </mxCell>
        <mxCell id="jOBW6AXI4wweXSDxxBhk-81" value="passenger_count" style="shape=partialRectangle;connectable=0;fillColor=none;top=0;left=0;bottom=0;right=0;align=left;spacingLeft=6;overflow=hidden;whiteSpace=wrap;html=1;" vertex="1" parent="jOBW6AXI4wweXSDxxBhk-79">
          <mxGeometry x="30" width="150" height="30" as="geometry">
            <mxRectangle width="150" height="30" as="alternateBounds" />
          </mxGeometry>
        </mxCell>
        <mxCell id="jOBW6AXI4wweXSDxxBhk-93" value="" style="edgeStyle=entityRelationEdgeStyle;fontSize=12;html=1;endArrow=ERoneToMany;rounded=0;startSize=8;endSize=8;curved=1;entryX=0;entryY=0.5;entryDx=0;entryDy=0;" edge="1" parent="1" source="jOBW6AXI4wweXSDxxBhk-72" target="jOBW6AXI4wweXSDxxBhk-15">
          <mxGeometry width="100" height="100" relative="1" as="geometry">
            <mxPoint x="177" y="276" as="sourcePoint" />
            <mxPoint x="277" y="176" as="targetPoint" />
          </mxGeometry>
        </mxCell>
        <mxCell id="jOBW6AXI4wweXSDxxBhk-94" value="" style="edgeStyle=entityRelationEdgeStyle;fontSize=12;html=1;endArrow=ERoneToMany;rounded=0;startSize=8;endSize=8;curved=1;entryX=1;entryY=0.5;entryDx=0;entryDy=0;exitX=0;exitY=0.5;exitDx=0;exitDy=0;" edge="1" parent="1" source="jOBW6AXI4wweXSDxxBhk-88" target="jOBW6AXI4wweXSDxxBhk-76">
          <mxGeometry width="100" height="100" relative="1" as="geometry">
            <mxPoint x="-58" y="235" as="sourcePoint" />
            <mxPoint x="42" y="135" as="targetPoint" />
          </mxGeometry>
        </mxCell>
        <mxCell id="jOBW6AXI4wweXSDxxBhk-95" value="trip_distance_dim" style="shape=table;startSize=30;container=1;collapsible=1;childLayout=tableLayout;fixedRows=1;rowLines=0;fontStyle=1;align=center;resizeLast=1;html=1;" vertex="1" parent="1">
          <mxGeometry x="-129" y="-24.5" width="180" height="90" as="geometry" />
        </mxCell>
        <mxCell id="jOBW6AXI4wweXSDxxBhk-96" value="" style="shape=tableRow;horizontal=0;startSize=0;swimlaneHead=0;swimlaneBody=0;fillColor=none;collapsible=0;dropTarget=0;points=[[0,0.5],[1,0.5]];portConstraint=eastwest;top=0;left=0;right=0;bottom=1;" vertex="1" parent="jOBW6AXI4wweXSDxxBhk-95">
          <mxGeometry y="30" width="180" height="30" as="geometry" />
        </mxCell>
        <mxCell id="jOBW6AXI4wweXSDxxBhk-97" value="PK" style="shape=partialRectangle;connectable=0;fillColor=none;top=0;left=0;bottom=0;right=0;fontStyle=1;overflow=hidden;whiteSpace=wrap;html=1;" vertex="1" parent="jOBW6AXI4wweXSDxxBhk-96">
          <mxGeometry width="30" height="30" as="geometry">
            <mxRectangle width="30" height="30" as="alternateBounds" />
          </mxGeometry>
        </mxCell>
        <mxCell id="jOBW6AXI4wweXSDxxBhk-98" value="trip_distance_id" style="shape=partialRectangle;connectable=0;fillColor=none;top=0;left=0;bottom=0;right=0;align=left;spacingLeft=6;fontStyle=5;overflow=hidden;whiteSpace=wrap;html=1;" vertex="1" parent="jOBW6AXI4wweXSDxxBhk-96">
          <mxGeometry x="30" width="150" height="30" as="geometry">
            <mxRectangle width="150" height="30" as="alternateBounds" />
          </mxGeometry>
        </mxCell>
        <mxCell id="jOBW6AXI4wweXSDxxBhk-99" value="" style="shape=tableRow;horizontal=0;startSize=0;swimlaneHead=0;swimlaneBody=0;fillColor=none;collapsible=0;dropTarget=0;points=[[0,0.5],[1,0.5]];portConstraint=eastwest;top=0;left=0;right=0;bottom=0;" vertex="1" parent="jOBW6AXI4wweXSDxxBhk-95">
          <mxGeometry y="60" width="180" height="30" as="geometry" />
        </mxCell>
        <mxCell id="jOBW6AXI4wweXSDxxBhk-100" value="" style="shape=partialRectangle;connectable=0;fillColor=none;top=0;left=0;bottom=0;right=0;editable=1;overflow=hidden;whiteSpace=wrap;html=1;" vertex="1" parent="jOBW6AXI4wweXSDxxBhk-99">
          <mxGeometry width="30" height="30" as="geometry">
            <mxRectangle width="30" height="30" as="alternateBounds" />
          </mxGeometry>
        </mxCell>
        <mxCell id="jOBW6AXI4wweXSDxxBhk-101" value="trip_distance" style="shape=partialRectangle;connectable=0;fillColor=none;top=0;left=0;bottom=0;right=0;align=left;spacingLeft=6;overflow=hidden;whiteSpace=wrap;html=1;" vertex="1" parent="jOBW6AXI4wweXSDxxBhk-99">
          <mxGeometry x="30" width="150" height="30" as="geometry">
            <mxRectangle width="150" height="30" as="alternateBounds" />
          </mxGeometry>
        </mxCell>
        <mxCell id="jOBW6AXI4wweXSDxxBhk-111" value="" style="edgeStyle=entityRelationEdgeStyle;fontSize=12;html=1;endArrow=ERoneToMany;rounded=0;startSize=8;endSize=8;curved=1;entryX=0;entryY=0.5;entryDx=0;entryDy=0;exitX=1;exitY=0.5;exitDx=0;exitDy=0;" edge="1" parent="1" source="jOBW6AXI4wweXSDxxBhk-96" target="jOBW6AXI4wweXSDxxBhk-108">
          <mxGeometry width="100" height="100" relative="1" as="geometry">
            <mxPoint x="75" y="215" as="sourcePoint" />
            <mxPoint x="175" y="115" as="targetPoint" />
          </mxGeometry>
        </mxCell>
      </root>
    </mxGraphModel>
  </diagram>
</mxfile>
